<?xml version="1.0" encoding="utf-8"?>
<!-- Generator: Adobe Illustrator 13.0.0, SVG Export Plug-In . SVG Version: 6.00 Build 14948)  -->
<!DOCTYPE svg PUBLIC "-//W3C//DTD SVG 1.1//EN" "http://www.w3.org/Graphics/SVG/1.1/DTD/svg11.dtd">
<svg version="1.1" id="Layer_1" xmlns="http://www.w3.org/2000/svg" xmlns:xlink="http://www.w3.org/1999/xlink" x="0px" y="0px"
	 width="503.333px" height="359.333px" viewBox="0 0 503.333 359.333" enable-background="new 0 0 503.333 359.333"
	 xml:space="preserve">
<rect x="21.039" y="66.831" fill="none" width="179.135" height="43.229"/>
<text transform="matrix(1 0 0 1 21.0386 74.1899)"><tspan x="0" y="0" font-family="'ArnoPro-Smbd'" font-size="11">Don’t panic kids—</tspan><tspan x="0" y="13.2" font-family="'ArnoPro-Smbd'" font-size="11" letter-spacing="6">	</tspan><tspan x="9" y="13.2" font-family="'ArnoPro-Smbd'" font-size="11">Crazy Uncle Zarf is here to help you</tspan><tspan x="0" y="26.4" font-family="'ArnoPro-Smbd'" font-size="11" letter-spacing="6">	</tspan><tspan x="9" y="26.4" font-family="'ArnoPro-Smbd'" font-size="11">get started…</tspan></text>
<rect x="21.726" y="240.633" fill="none" width="168.709" height="61.367"/>
<text transform="matrix(1 0 0 1 21.7256 247.5127)"><tspan x="0" y="0" font-family="'ArnoPro-Display'" font-size="10">If you meet a person, these should work:</tspan><tspan x="0" y="9.6" font-family="'ArnoPro-SmbdCaption'" font-size="8" letter-spacing="7">	</tspan><tspan x="9.333" y="9.6" font-family="'ArnoPro-SmbdCaption'" font-size="8">TALK TO </tspan><tspan x="45.245" y="9.6" font-family="'ArnoPro-ItalicCaption'" font-size="8">name</tspan><tspan x="0" y="19.2" font-family="'ArnoPro-SmbdCaption'" font-size="8" letter-spacing="7">	</tspan><tspan x="9.333" y="19.2" font-family="'ArnoPro-SmbdCaption'" font-size="8">ASK </tspan><tspan x="26.173" y="19.2" font-family="'ArnoPro-ItalicCaption'" font-size="8">name </tspan><tspan x="44.845" y="19.2" font-family="'ArnoPro-SmbdCaption'" font-size="8">ABOUT </tspan><tspan x="74.532" y="19.2" font-family="'ArnoPro-ItalicCaption'" font-size="8">something</tspan><tspan x="0" y="28.8" font-family="'ArnoPro-SmbdCaption'" font-size="8" letter-spacing="7">	</tspan><tspan x="9.333" y="28.8" font-family="'ArnoPro-SmbdCaption'" font-size="8">TELL </tspan><tspan x="30.877" y="28.8" font-family="'ArnoPro-ItalicCaption'" font-size="8">name </tspan><tspan x="49.549" y="28.8" font-family="'ArnoPro-SmbdCaption'" font-size="8">ABOUT </tspan><tspan x="79.236" y="28.8" font-family="'ArnoPro-ItalicCaption'" font-size="8">something</tspan><tspan x="0" y="38.4" font-family="'ArnoPro-SmbdCaption'" font-size="8" letter-spacing="7">	</tspan><tspan x="9.333" y="38.4" font-family="'ArnoPro-SmbdCaption'" font-size="8">GIVE </tspan><tspan x="30.325" y="38.4" font-family="'ArnoPro-ItalicCaption'" font-size="8">something </tspan><tspan x="63.412" y="38.4" font-family="'ArnoPro-SmbdCaption'" font-size="8">TO </tspan><tspan x="76.588" y="38.4" font-family="'ArnoPro-ItalicCaption'" font-size="8">name</tspan><tspan x="0" y="48" font-family="'ArnoPro-SmbdCaption'" font-size="8" letter-spacing="7">	</tspan><tspan x="9.333" y="48" font-family="'ArnoPro-SmbdCaption'" font-size="8">SHOW </tspan><tspan x="35.03" y="48" font-family="'ArnoPro-ItalicCaption'" font-size="8">something </tspan><tspan x="68.117" y="48" font-family="'ArnoPro-SmbdCaption'" font-size="8">TO </tspan><tspan x="81.293" y="48" font-family="'ArnoPro-ItalicCaption'" font-size="8">name</tspan></text>
<g>
	<rect x="346.972" y="24.026" fill="none" width="144.666" height="47.668"/>
	<text transform="matrix(1 0 0 1 355.4443 57.2412)" font-family="'ArnoPro-LightDisplay'" font-size="48">{            }</text>
	<rect x="358.54" y="28.64" fill="none" width="118.016" height="40.807"/>
	<text transform="matrix(1 0 0 1 369.0947 35.4893)"><tspan x="0" y="0" font-family="'ArnoPro-Italic'" font-size="10">Does the game intro suggest</tspan><tspan x="-1.256" y="12" font-family="'ArnoPro-SmbdCaption'" font-size="10">ABOUT, INFO, HELP</tspan><tspan x="94.602" y="12" font-family="'ArnoPro-Italic'" font-size="10">?</tspan><tspan x="22.639" y="24" font-family="'ArnoPro-Italic'" font-size="10">Try them first!</tspan></text>
</g>
<rect x="21.171" y="164" fill="none" width="187.33" height="69.999"/>
<text transform="matrix(1 0 0 1 21.1709 172.1357)"><tspan x="0" y="0" font-family="'ArnoPro-Regular'" font-size="12">You can try all sorts of commands</tspan><tspan x="0" y="13" font-family="'ArnoPro-Regular'" font-size="12" letter-spacing="7">	</tspan><tspan x="9.333" y="13" font-family="'ArnoPro-Regular'" font-size="12">on the  things  you see.</tspan><tspan x="0" y="27.4" font-family="'ArnoPro-Regular'" font-size="12">Try the commands that make sense! </tspan><tspan x="0" y="38.8" font-family="'ArnoPro-Regular'" font-size="9.5">Doors are for opening; buttons are for pushing;</tspan><tspan x="0" y="50.8" font-family="'ArnoPro-Regular'" font-size="9.5" letter-spacing="7">	</tspan><tspan x="9.333" y="50.8" font-family="'ArnoPro-Regular'" font-size="9.5">pie is for eating. </tspan><tspan x="66.986" y="50.8" font-family="'ArnoPro-Italic'" font-size="10"> </tspan><tspan x="68.906" y="50.8" font-family="'ArnoPro-LightItalicDisplay'" font-size="8">(Mmm, pie.)</tspan></text>
<rect x="363.759" y="319.311" fill="none" width="122.742" height="26.524"/>
<text transform="matrix(1 0 0 1 363.7588 324.1055)"><tspan x="0" y="0" font-family="'ArnoPro-Italic'" font-size="7">A service of the</tspan><tspan x="0" y="7" font-family="'ArnoPro-Italic'" font-size="7">People’s Republic of Interactive Fiction: </tspan><tspan x="74.751" y="14" fill="#00A1F0" font-family="'ArnoPro-BoldItalic'" font-size="8">http://pr-if.org</tspan></text>
<g>
	<rect x="21.226" y="21.216" fill="none" width="159.357" height="48.926"/>
	<text transform="matrix(1 0 0 1 21.2251 28.6602)"><tspan x="0" y="0" font-family="'ArnoPro-Regular'" font-size="10.9799">You just started up a game </tspan><tspan x="0" y="10.98" font-family="'ArnoPro-Regular'" font-size="10.9799" letter-spacing="7">	</tspan><tspan x="9.882" y="10.98" font-family="'ArnoPro-Regular'" font-size="10.9799">and now you’re staring at</tspan><tspan x="0" y="21.96" font-family="'ArnoPro-Italic'" font-size="10.9799" letter-spacing="7">	</tspan><tspan x="9.882" y="21.96" font-family="'ArnoPro-Italic'" font-size="10.9799">text </tspan><tspan x="26.823" y="21.96" font-family="'ArnoPro-Regular'" font-size="10.9799">and a </tspan><tspan x="50.857" y="21.96" font-family="'ArnoPro-Italic'" font-size="10.9799">blinking cursor</tspan><tspan x="108.84" y="21.96" font-family="'ArnoPro-Regular'" font-size="10.9799"> </tspan><tspan x="0" y="32.94" font-family="'ArnoPro-Regular'" font-size="10.9799" letter-spacing="7">	</tspan><tspan x="9.882" y="32.94" font-family="'ArnoPro-Regular'" font-size="10.9799">and you </tspan><tspan x="44.939" y="32.94" font-family="'ArnoPro-Italic'" font-size="10.9799">don’t know what to do</tspan><tspan x="132.031" y="32.94" font-family="'ArnoPro-Regular'" font-size="10.9799">!</tspan></text>
	<g>
		<rect x="141.681" y="25.12" fill="none" width="35.91" height="26.819"/>
		<text transform="matrix(1 0 0 1 141.6812 44.3125)" font-family="'ArnoPro-LightDisplay'" font-size="27.7355">(   )</text>
		<rect x="148.756" y="29.016" fill="none" width="20.114" height="20.528"/>
		<text transform="matrix(1 0 0 1 148.7563 40.0303)" fill="#00A1F0" font-family="'ArnoPro-Regular'" font-size="16.245">&gt; |</text>
	</g>
</g>
<g>
	
		<rect x="198.53" y="15.212" fill="none" stroke="#000000" stroke-width="0.7492" stroke-dasharray="2.9969,2.9969" width="144.5" height="326.933"/>
	<g>
		<rect x="202.489" y="18.29" fill="none" width="149.915" height="74.768"/>
		<text transform="matrix(1 0 0 1 202.4888 24.3115)"><tspan x="0" y="0" font-family="'ArnoPro-Caption'" font-size="9">These commands are very common:</tspan><tspan x="0" y="10.801" font-family="'ArnoPro-SmbdCaption'" font-size="9">EXAMINE </tspan><tspan x="43.352" y="10.801" font-family="'ArnoPro-ItalicCaption'" font-size="9">it</tspan><tspan x="48.473" y="10.801" font-family="'ArnoPro-SmbdCaption'" font-size="9" letter-spacing="35">	</tspan><tspan x="86" y="10.801" font-family="'ArnoPro-SmbdCaption'" font-size="9">PUSH </tspan><tspan x="111.946" y="10.801" font-family="'ArnoPro-ItalicCaption'" font-size="9">it</tspan><tspan x="0" y="21.601" font-family="'ArnoPro-SmbdCaption'" font-size="9">TAKE </tspan><tspan x="25.802" y="21.601" font-family="'ArnoPro-ItalicCaption'" font-size="9">it</tspan><tspan x="30.923" y="21.601" font-family="'ArnoPro-SmbdCaption'" font-size="9" letter-spacing="53">	</tspan><tspan x="86" y="21.601" font-family="'ArnoPro-SmbdCaption'" font-size="9">PULL </tspan><tspan x="110.866" y="21.601" font-family="'ArnoPro-ItalicCaption'" font-size="9">it</tspan><tspan x="0" y="32.4" font-family="'ArnoPro-SmbdCaption'" font-size="9">DROP </tspan><tspan x="27.089" y="32.4" font-family="'ArnoPro-ItalicCaption'" font-size="9">it</tspan><tspan x="32.21" y="32.4" font-family="'ArnoPro-SmbdCaption'" font-size="9" letter-spacing="51">	</tspan><tspan x="86" y="32.4" font-family="'ArnoPro-SmbdCaption'" font-size="9">TURN </tspan><tspan x="113.458" y="32.4" font-family="'ArnoPro-ItalicCaption'" font-size="9">it</tspan><tspan x="0" y="43.2" font-family="'ArnoPro-SmbdCaption'" font-size="9">OPEN </tspan><tspan x="26.846" y="43.2" font-family="'ArnoPro-ItalicCaption'" font-size="9">it</tspan><tspan x="31.967" y="43.2" font-family="'ArnoPro-SmbdCaption'" font-size="9" letter-spacing="52">	</tspan><tspan x="86" y="43.2" font-family="'ArnoPro-SmbdCaption'" font-size="9">FEEL </tspan><tspan x="109.786" y="43.2" font-family="'ArnoPro-ItalicCaption'" font-size="9">it</tspan><tspan x="0" y="54" font-family="'ArnoPro-SmbdCaption'" font-size="9">PUT </tspan><tspan x="20.124" y="54" font-family="'ArnoPro-ItalicCaption'" font-size="9">it </tspan><tspan x="27.206" y="54" font-family="'ArnoPro-SmbdCaption'" font-size="9">IN </tspan><tspan x="39.355" y="54" font-family="'ArnoPro-ItalicCaption'" font-size="9">something</tspan><tspan x="0" y="64.801" font-family="'ArnoPro-SmbdCaption'" font-size="9">PUT </tspan><tspan x="20.124" y="64.801" font-family="'ArnoPro-ItalicCaption'" font-size="9">it </tspan><tspan x="27.206" y="64.801" font-family="'ArnoPro-SmbdCaption'" font-size="9">ON </tspan><tspan x="42.893" y="64.801" font-family="'ArnoPro-ItalicCaption'" font-size="9">something</tspan></text>
		<line fill="none" stroke="#000000" stroke-width="0.5" x1="203.489" y1="26.06" x2="329.173" y2="26.06"/>
	</g>
	<g>
		<rect x="202.489" y="164.957" fill="none" width="149.915" height="112.665"/>
		<text transform="matrix(1 0 0 1 202.4888 170.9766)"><tspan x="0" y="0" font-family="'ArnoPro-Caption'" font-size="9">You could also try:</tspan><tspan x="0" y="10.801" font-family="'ArnoPro-SmbdCaption'" font-size="9">EAT </tspan><tspan x="19.521" y="10.801" font-family="'ArnoPro-ItalicCaption'" font-size="9">it</tspan><tspan x="24.641" y="10.801" font-family="'ArnoPro-Caption'" font-size="9" letter-spacing="59">	</tspan><tspan x="86" y="10.801" font-family="'ArnoPro-SmbdCaption'" font-size="9">CLIMB</tspan><tspan x="114.889" y="10.801" font-family="'ArnoPro-Caption'" font-size="9"> </tspan><tspan x="116.842" y="10.801" font-family="'ArnoPro-ItalicCaption'" font-size="9">it</tspan><tspan x="0" y="21.601" font-family="'ArnoPro-SmbdCaption'" font-size="9">DRINK </tspan><tspan x="31.166" y="21.601" font-family="'ArnoPro-ItalicCaption'" font-size="9">it</tspan><tspan x="36.287" y="21.601" font-family="'ArnoPro-Caption'" font-size="9" letter-spacing="47">	</tspan><tspan x="85.999" y="21.601" font-family="'ArnoPro-SmbdCaption'" font-size="9">WAVE</tspan><tspan x="111.973" y="21.601" font-family="'ArnoPro-Caption'" font-size="9"> </tspan><tspan x="113.926" y="21.601" font-family="'ArnoPro-ItalicCaption'" font-size="9">it</tspan><tspan x="0" y="32.4" font-family="'ArnoPro-SmbdCaption'" font-size="9">FILL </tspan><tspan x="21.374" y="32.4" font-family="'ArnoPro-ItalicCaption'" font-size="9">it</tspan><tspan x="26.495" y="32.4" font-family="'ArnoPro-Caption'" font-size="9" letter-spacing="57">	</tspan><tspan x="85.999" y="32.4" font-family="'ArnoPro-SmbdCaption'" font-size="9">WEAR</tspan><tspan x="111.918" y="32.4" font-family="'ArnoPro-Caption'" font-size="9"> </tspan><tspan x="113.872" y="32.4" font-family="'ArnoPro-ItalicCaption'" font-size="9">it</tspan><tspan x="0" y="43.2" font-family="'ArnoPro-SmbdCaption'" font-size="9">SMELL </tspan><tspan x="30.995" y="43.2" font-family="'ArnoPro-ItalicCaption'" font-size="9">it</tspan><tspan x="36.116" y="43.2" font-family="'ArnoPro-Caption'" font-size="9" letter-spacing="47">	</tspan><tspan x="85.999" y="43.2" font-family="'ArnoPro-SmbdCaption'" font-size="9">TAKE </tspan><tspan x="111.801" y="43.2" font-family="'ArnoPro-ItalicCaption'" font-size="9">it </tspan><tspan x="118.883" y="43.2" font-family="'ArnoPro-SmbdCaption'" font-size="9">OFF</tspan><tspan x="0" y="54" font-family="'ArnoPro-SmbdCaption'" font-size="9">LISTEN TO</tspan><tspan x="46.907" y="54" font-family="'ArnoPro-Caption'" font-size="9"> </tspan><tspan x="48.86" y="54" font-family="'ArnoPro-ItalicCaption'" font-size="9">it</tspan><tspan x="53.981" y="54" font-family="'ArnoPro-Caption'" font-size="9" letter-spacing="30">	</tspan><tspan x="86" y="54" font-family="'ArnoPro-SmbdCaption'" font-size="9">TURN </tspan><tspan x="113.458" y="54" font-family="'ArnoPro-ItalicCaption'" font-size="9">it </tspan><tspan x="120.542" y="54" font-family="'ArnoPro-SmbdCaption'" font-size="9">ON</tspan><tspan x="0" y="64.801" font-family="'ArnoPro-SmbdCaption'" font-size="9">BREAK</tspan><tspan x="29.763" y="64.801" font-family="'ArnoPro-Caption'" font-size="9"> </tspan><tspan x="31.716" y="64.801" font-family="'ArnoPro-ItalicCaption'" font-size="9">it</tspan><tspan x="36.836" y="64.801" font-family="'ArnoPro-Caption'" font-size="9" letter-spacing="47">	</tspan><tspan x="86" y="64.801" font-family="'ArnoPro-SmbdCaption'" font-size="9">DIG IN </tspan><tspan x="116.833" y="64.801" font-family="'ArnoPro-ItalicCaption'" font-size="9">it</tspan><tspan x="0" y="75.601" font-family="'ArnoPro-SmbdCaption'" font-size="9">BURN</tspan><tspan x="25.416" y="75.601" font-family="'ArnoPro-Caption'" font-size="9"> </tspan><tspan x="27.369" y="75.601" font-family="'ArnoPro-ItalicCaption'" font-size="9">it</tspan><tspan x="32.489" y="75.601" font-family="'ArnoPro-ItalicCaption'" font-size="9" letter-spacing="51">	</tspan><tspan x="86" y="75.601" font-family="'ArnoPro-SmbdCaption'" font-size="9">ENTER </tspan><tspan x="117.967" y="75.601" font-family="'ArnoPro-ItalicCaption'" font-size="9">it</tspan><tspan x="123.087" y="75.601" font-family="'ArnoPro-Caption'" font-size="9" letter-spacing="18">	</tspan><tspan x="0" y="86.4" font-family="'ArnoPro-SmbdCaption'" font-size="9">LOOK UNDER </tspan><tspan x="61.2" y="86.4" font-family="'ArnoPro-ItalicCaption'" font-size="9">it</tspan><tspan x="66.32" y="86.4" font-family="'ArnoPro-ItalicCaption'" font-size="9" letter-spacing="17">	</tspan><tspan x="86" y="86.4" font-family="'ArnoPro-SmbdCaption'" font-size="9">SEARCH</tspan><tspan x="121.756" y="86.4" font-family="'ArnoPro-Caption'" font-size="9"> </tspan><tspan x="123.709" y="86.4" font-family="'ArnoPro-ItalicCaption'" font-size="9">it</tspan><tspan x="128.831" y="86.4" font-family="'ArnoPro-Caption'" font-size="9" letter-spacing="13">	</tspan><tspan x="0" y="97.2" font-family="'ArnoPro-SmbdCaption'" font-size="9">UNLOCK </tspan><tspan x="40.311" y="97.2" font-family="'ArnoPro-ItalicCaption'" font-size="9">it </tspan><tspan x="47.393" y="97.2" font-family="'ArnoPro-SmbdCaption'" font-size="9">WITH </tspan><tspan x="74.014" y="97.2" font-family="'ArnoPro-ItalicCaption'" font-size="9">something</tspan></text>
		<line fill="none" stroke="#000000" stroke-width="0.5" x1="202.155" y1="172.725" x2="267.173" y2="172.725"/>
	</g>
	<g>
		<rect x="202.193" y="273.802" fill="none" width="144.042" height="75.696"/>
		<text transform="matrix(1 0 0 1 202.1929 279.8223)"><tspan x="0" y="0" font-family="'ArnoPro-Caption'" font-size="9">Or even:</tspan><tspan x="0" y="10.801" font-family="'ArnoPro-SmbdCaption'" font-size="9">LISTEN</tspan><tspan x="32.084" y="10.801" font-family="'ArnoPro-SmbdCaption'" font-size="9" letter-spacing="52">	</tspan><tspan x="86" y="10.801" font-family="'ArnoPro-SmbdCaption'" font-size="9">JUMP</tspan><tspan x="0" y="21.601" font-family="'ArnoPro-SmbdCaption'" font-size="9">SLEEP</tspan><tspan x="26.918" y="21.601" font-family="'ArnoPro-SmbdCaption'" font-size="9" letter-spacing="57">	</tspan><tspan x="86" y="21.601" font-family="'ArnoPro-SmbdCaption'" font-size="9">PRAY</tspan><tspan x="0" y="32.4" font-family="'ArnoPro-SmbdCaption'" font-size="9">WAKE UP</tspan><tspan x="40.301" y="32.4" font-family="'ArnoPro-SmbdCaption'" font-size="9" letter-spacing="43">	</tspan><tspan x="86" y="32.4" font-family="'ArnoPro-SmbdCaption'" font-size="9">CURSE</tspan><tspan x="0" y="43.2" font-family="'ArnoPro-SmbdCaption'" font-size="9">UNDO</tspan><tspan x="27.279" y="40.2" fill="#00A1F0" font-family="'ArnoPro-SmbdCaption'" font-size="8">†</tspan><tspan x="31.663" y="43.2" font-family="'ArnoPro-SmbdCaption'" font-size="9" letter-spacing="52">	</tspan><tspan x="86" y="43.2" font-family="'ArnoPro-SmbdCaption'" font-size="9">SING</tspan><tspan x="0" y="53.2" fill="#00A1F0" font-family="'ArnoPro-ItalicCaption'" font-size="5">†</tspan><tspan x="2.695" y="55.2" font-family="'ArnoPro-ItalicCaption'" font-size="7">Take back one move — handy!</tspan></text>
		<line fill="none" stroke="#000000" stroke-width="0.5" x1="202.155" y1="281.558" x2="231.173" y2="281.558"/>
	</g>
	<rect x="197.561" y="95.12" fill="none" width="147.742" height="15.483"/>
	<text transform="matrix(1 0 0 1 213.2129 101.7793)" fill="#00A1F0" font-family="'ArnoPro-BoldItalic'" font-size="10">When in doubt, examine more.</text>
</g>
<g>
	<rect x="12.833" y="107.7" fill="#FFFFFF" stroke="#000000" width="341.164" height="51.671"/>
	<rect x="15.416" y="110.284" fill="none" stroke="#000000" stroke-width="0.5126" width="335.999" height="46.503"/>
	<g>
		<rect x="25.605" y="118.601" fill="none" width="318.263" height="29.047"/>
		<text transform="matrix(1 0 0 1 25.6055 128.332)"><tspan x="0" y="0" font-family="'ArnoPro-Regular'" font-size="14.3528">You are standing in an open  field  west of a white  house, </tspan><tspan x="0" y="17.223" font-family="'ArnoPro-Regular'" font-size="14.3528">with a boarded front  door.  There is a small  mailbox</tspan><tspan x="279.876" y="17.223" font-family="'ArnoPro-Regular'" font-size="10"> </tspan><tspan x="281.774" y="17.223" font-family="'ArnoPro-Regular'" font-size="14.3528">  here.</tspan></text>
		
			<rect x="176.311" y="117.232" fill="none" stroke="#000000" stroke-width="0.5126" stroke-dasharray="2.0504,2.0504" width="27.338" height="14.694"/>
		
			<rect x="288.741" y="117.232" fill="none" stroke="#000000" stroke-width="0.5126" stroke-dasharray="2.0504,2.0504" width="39.299" height="14.694"/>
		
			<rect x="139.062" y="133.978" fill="none" stroke="#000000" stroke-width="0.5126" stroke-dasharray="2.0504,2.0504" width="31.438" height="14.694"/>
		
			<rect x="259.694" y="133.978" fill="none" stroke="#000000" stroke-width="0.5126" stroke-dasharray="2.0504,2.0504" width="47.498" height="14.694"/>
		<g>
			<text transform="matrix(1 0 0 1 307.9893 140.415)" fill="#00A1F0" font-family="'ArnoPro-Regular'" font-size="10">*</text>
		</g>
	</g>
</g>
<text transform="matrix(0 -1 1 0 362.0186 154.5864)"><tspan x="0" y="0" fill="#00A1F0" font-family="'ArnoPro-Regular'" font-size="8.0279">*</tspan><tspan x="2.906" y="0" font-family="'ArnoPro-Regular'" font-size="8.0279">Try opening!</tspan></text>
<rect x="363.845" y="201.597" fill="none" width="127.156" height="105.236"/>
<text transform="matrix(1 0 0 1 363.8447 206.877)"><tspan x="0" y="0" font-family="'ArnoPro-SmbdCaption'" font-size="8">N/E/S/W/NE/SE/NW/SW: GO</tspan><tspan x="0" y="9.6" font-family="'ArnoPro-SmbdCaption'" font-size="8" letter-spacing="7">	</tspan><tspan x="8.666" y="9.6" font-family="'ArnoPro-Italic'" font-size="8">in the indicated compass direction.</tspan><tspan x="0" y="19.199" font-family="'ArnoPro-SmbdCaption'" font-size="8">L: LOOK</tspan><tspan x="0" y="28.8" font-family="'ArnoPro-Italic'" font-size="8" letter-spacing="7">	</tspan><tspan x="8.666" y="28.8" font-family="'ArnoPro-Italic'" font-size="8">around to see what is nearby.</tspan><tspan x="0" y="38.399" font-family="'ArnoPro-SmbdCaption'" font-size="8">X: EXAMINE</tspan><tspan x="0" y="48" font-family="'ArnoPro-Italic'" font-size="8" letter-spacing="7">	</tspan><tspan x="8.666" y="48" font-family="'ArnoPro-Italic'" font-size="8">a thing in more detail.</tspan><tspan x="0" y="57.6" font-family="'ArnoPro-SmbdCaption'" font-size="8">I:</tspan><tspan x="5.72" y="57.6" font-family="'ArnoPro-Italic'" font-size="8"> take </tspan><tspan x="20.863" y="57.6" font-family="'ArnoPro-SmbdCaption'" font-size="8">INVENTORY</tspan><tspan x="0" y="67.199" font-family="'ArnoPro-Italic'" font-size="8" letter-spacing="7">	</tspan><tspan x="8.666" y="67.199" font-family="'ArnoPro-Italic'" font-size="8">of what you possess.</tspan><tspan x="0" y="76.8" font-family="'ArnoPro-SmbdCaption'" font-size="8">Z: WAIT </tspan><tspan x="0" y="86.399" font-family="'ArnoPro-Italic'" font-size="8" letter-spacing="7">	</tspan><tspan x="8.666" y="86.399" font-family="'ArnoPro-Italic'" font-size="8">a turn without doing anything.</tspan><tspan x="0" y="96" font-family="'ArnoPro-SmbdCaption'" font-size="8">G: </tspan><tspan x="10.264" y="96" font-family="'ArnoPro-Italic'" font-size="8">do the same thing </tspan><tspan x="61.333" y="96" font-family="'ArnoPro-SmbdCaption'" font-size="8">AGAIN </tspan></text>
<rect x="425.304" y="132.596" fill="none" width="60.863" height="30.903"/>
<text transform="matrix(1 0 0 1 469.3672 137.9482)"><tspan x="0" y="0" font-family="'ArnoPro-Caption'" font-size="8">Also:</tspan><tspan x="-17.999" y="9" font-family="'ArnoPro-SmbdItalicCaption'" font-size="8">Up, Down,</tspan><tspan x="-26.319" y="18" font-family="'ArnoPro-SmbdItalicCaption'" font-size="8">IN, </tspan><tspan x="-13.633" y="18" font-family="'ArnoPro-Caption'" font-size="8">and</tspan><tspan x="-1.729" y="18" font-family="'ArnoPro-SmbdItalicCaption'" font-size="8"> OUT</tspan></text>
<g>
	<g>
		<polygon points="425.597,113.167 434.646,128.248 419.566,119.199 404.484,128.248 413.533,113.167 404.484,98.086 
			419.566,107.136 434.646,98.086 		"/>
		<polygon fill="#FFFFFF" stroke="#000000" stroke-width="0.8378" stroke-linejoin="bevel" points="425.597,107.134 
			449.727,113.167 425.598,119.198 419.566,143.329 413.533,119.199 389.403,113.167 413.533,107.134 419.566,83.005 		"/>
		<line fill="none" stroke="#000000" stroke-width="0.8378" x1="419.564" y1="143.327" x2="419.564" y2="83.006"/>
		<line fill="none" stroke="#000000" stroke-width="0.8378" x1="389.403" y1="113.167" x2="449.727" y2="113.167"/>
		<line fill="none" stroke="#000000" stroke-width="0.6284" x1="413.533" y1="119.199" x2="425.597" y2="107.134"/>
		<line fill="none" stroke="#000000" stroke-width="0.6284" x1="413.533" y1="107.134" x2="425.598" y2="119.198"/>
	</g>
	<text transform="matrix(1 0 0 1 415.2197 81.3301)" font-family="'ArnoPro-SmbdItalicCaption'" font-size="11.7295">N</text>
	<text transform="matrix(1 0 0 1 390.7686 95.8525)" font-family="'ArnoPro-SmbdItalicCaption'" font-size="7.5404">NW</text>
	<text transform="matrix(1 0 0 1 436.5566 95.0146)" font-family="'ArnoPro-SmbdItalicCaption'" font-size="7.5404">NE</text>
	<text transform="matrix(1 0 0 1 391.5986 136.0679)" font-family="'ArnoPro-SmbdItalicCaption'" font-size="7.5404">SW</text>
	<text transform="matrix(1 0 0 1 437.3867 136.0679)" font-family="'ArnoPro-SmbdItalicCaption'" font-size="7.5404">SE</text>
	<text transform="matrix(1 0 0 1 416.5098 153.3823)" font-family="'ArnoPro-SmbdItalicCaption'" font-size="11.7295">S</text>
	<text transform="matrix(1 0 0 1 451.4912 116.2388)" font-family="'ArnoPro-SmbdItalicCaption'" font-size="11.7295">E</text>
	<text transform="matrix(1 0 0 1 377.1611 116.2388)" font-family="'ArnoPro-SmbdItalicCaption'" font-size="11.7295">W</text>
</g>
<rect x="426.889" y="73.845" fill="none" width="62.543" height="14.011"/>
<text transform="matrix(1 0 0 1 426.8896 79.0098)" font-family="'ArnoPro-Italic'" font-size="7.5404">(“Go north.”)</text>
<rect x="62.395" y="175.978" fill="none" stroke="#000000" stroke-width="0.5085" stroke-dasharray="2.034,2.034" width="30.938" height="13.694"/>
<rect x="21.49" y="308.774" fill="none" width="174.667" height="48"/>
<text transform="matrix(1 0 0 1 21.4897 316.3096)"><tspan x="0" y="0" font-family="'ArnoPro-Italic'" font-size="11">Each game has slightly different commands, </tspan><tspan x="0" y="13.2" font-family="'ArnoPro-Italic'" font-size="11" letter-spacing="7">	</tspan><tspan x="9.333" y="13.2" font-family="'ArnoPro-Italic'" font-size="11">but they all look </tspan><tspan x="73.846" y="13.2" font-family="'ArnoPro-BoldItalic'" font-size="11">pretty much like these</tspan><tspan x="164.364" y="13.2" font-family="'ArnoPro-Italic'" font-size="11">.</tspan></text>
<rect x="364.044" y="164" fill="none" width="122.123" height="27.25"/>
<text transform="matrix(1 0 0 1 364.0439 172.1357)"><tspan x="0" y="0" font-family="'ArnoPro-Regular'" font-size="12">What if I only want to</tspan><tspan x="0" y="13" font-family="'ArnoPro-Regular'" font-size="12" letter-spacing="7">	</tspan><tspan x="9.333" y="13" font-family="'ArnoPro-Regular'" font-size="12"> type one or two letters?</tspan></text>
<text transform="matrix(1 0 0 1 481.0693 186)" font-family="'ArnoPro-SmbdCaption'" font-size="18">”</text>
<text transform="matrix(1 0 0 1 355.1963 173.125)" font-family="'ArnoPro-SmbdCaption'" font-size="18">“</text>
<rect x="398.998" y="186.783" fill="none" width="31.333" height="10.216"/>
<text transform="matrix(0 1 -1 0 414.0596 189.7988)" font-family="'ArnoPro-Regular'" font-size="24">•</text>
<rect x="398.998" y="304.244" fill="none" width="31.333" height="11.505"/>
<text transform="matrix(0 1 -1 0 414.0596 308.5488)" font-family="'ArnoPro-Regular'" font-size="24">•</text>
<rect x="75.126" y="226.18" fill="none" width="31.333" height="11.505"/>
<text transform="matrix(0 1 -1 0 90.1885 230.4844)" font-family="'ArnoPro-Regular'" font-size="24">•</text>
</svg>
